<?xml version="1.0" encoding="UTF-8"?>
<svg id="Layer_1" data-name="Layer 1" xmlns="http://www.w3.org/2000/svg" viewBox="0 0 166.52 170.53">
  <path class="cls-1" d="m143.73,89.99c-7.99-6.66-19.38-11.81-34.15-15.44-14.42-3.32-25.34-8.44-32.83-15.33V18.82c.52-.38,1.03-.77,1.59-1.13,7.99-5.45,18.71-8.17,32.15-8.17,14.41,0,27.37,5.87,38.87,17.62l2.18-1.27c-11.87-12.59-25.55-18.89-41.05-18.89s-27.31,3.45-36.51,10.35c-6.13,4.87-10.09,10.85-11.96,17.88-.04.1-.11.22-.14.31-1.68,4.92-2.01,13.49-2.01,21.87v59.67c0,15.02-.55,24.57-1.63,28.69-2.44,9.58-8.43,14.36-17.98,14.36s-17.56-4.17-23.99-12.55c-3.02-3.62-5.43-7.98-7.27-13.07l-2.18,1.29c1.84,4.83,4.31,9.32,7.46,13.44,7.14,8.95,15.8,13.44,25.99,13.44s18.59-4.49,25.96-13.44c.26-.34.53-.66.76-1,.56-.72,1.05-1.47,1.56-2.22,11.59,11.67,24.84,17.56,39.77,17.56s27.55-3.75,37.24-11.26c9.44-7.27,14.17-16.83,14.17-28.7.12-13.68-5.21-24.89-15.98-33.61Zm-2.18,62.31c-8.84,5.81-19.92,8.72-33.24,8.72-14.59,0-27.37-5.77-38.38-17.2.46-.77.93-1.54,1.33-2.34,3.68-7.09,5.49-15.25,5.49-24.41v-40.42c.11.09.21.18.32.27,8.11,6.42,18.95,11.33,32.52,14.72,15.74,3.75,27.49,9.51,35.24,17.26,7.27,7.27,10.54,15.02,9.81,23.25-.85,8.11-5.21,14.84-13.08,20.16Z"/>
  <path class="cls-1" d="m59.86,33.05c2.15-6.96,6.33-12.89,12.47-17.77,1.39-1.05,2.86-2.02,4.41-2.91v-5.38h-27.06v2.52h10.19v23.55Z"/>
</svg>